<svg width="3337" height="400" viewBox="0 0 3337 400" fill="none" xmlns="http://www.w3.org/2000/svg">
<path d="M786.422 314.591C757.921 314.591 734.534 308.381 716.329 295.962C698.09 283.543 687.078 265.807 683.26 242.718L734.398 229.407C736.443 239.768 739.921 247.898 744.762 253.799C749.603 259.734 755.637 263.92 762.83 266.458C770.024 268.963 777.899 270.232 786.422 270.232C799.343 270.232 808.889 267.934 815.059 263.371C821.23 258.774 824.332 253.113 824.332 246.286C824.332 239.459 821.4 234.244 815.503 230.539C809.605 226.834 800.229 223.815 787.274 221.448L774.933 219.218C759.66 216.268 745.682 212.185 733.068 207.005C720.42 201.824 710.295 194.654 702.658 185.494C695.022 176.334 691.203 164.499 691.203 150.021C691.203 128.133 699.147 111.357 714.999 99.6587C730.886 87.9944 751.716 82.1279 777.592 82.1279C801.968 82.1279 822.253 87.617 838.412 98.5266C854.572 109.47 865.14 123.811 870.152 141.547L818.571 157.5C816.218 146.282 811.446 138.288 804.252 133.554C797.059 128.819 788.161 126.452 777.592 126.452C767.024 126.452 758.91 128.305 753.353 132.01C747.762 135.715 744.966 140.827 744.966 147.311C744.966 154.412 747.898 159.661 753.796 163.058C759.66 166.454 767.603 169.061 777.592 170.811L789.934 173.041C806.4 175.991 821.298 179.902 834.662 184.808C848.026 189.68 858.595 196.644 866.402 205.667C874.175 214.689 878.095 226.903 878.095 242.272C878.095 265.326 869.777 283.166 853.174 295.722C836.571 308.313 814.309 314.591 786.388 314.591H786.422Z" fill="#1C2026"/>
<path d="M974.917 313.697C957.871 313.697 942.973 309.786 930.188 301.93C917.404 294.108 907.483 283.233 900.426 269.339C893.369 255.445 889.857 239.458 889.857 221.446V90.1543H945.393V217.021C945.393 233.591 949.416 246.01 957.53 254.278C965.61 262.546 977.133 266.697 992.133 266.697C1009.18 266.697 1022.41 261.002 1031.82 249.612C1041.23 238.222 1045.93 222.338 1045.93 201.926V90.1543H1101.47V310.164H1046.82V281.346H1038.87C1035.36 288.756 1028.75 295.995 1019.03 303.097C1009.35 310.198 994.622 313.732 974.951 313.732L974.917 313.697Z" fill="#1C2026"/>
<path d="M1141.12 398.878V90.1509H1195.76V116.773H1203.71C1208.69 108.196 1216.49 100.58 1227.06 93.9247C1237.63 87.2692 1252.77 83.9414 1272.47 83.9414C1290.1 83.9414 1306.43 88.2984 1321.39 97.0123C1336.39 105.726 1348.43 118.523 1357.53 135.367C1366.63 152.212 1371.2 172.625 1371.2 196.571V203.672C1371.2 227.618 1366.63 248.031 1357.53 264.875C1348.43 281.72 1336.36 294.517 1321.39 303.23C1306.39 311.944 1290.1 316.301 1272.47 316.301C1259.24 316.301 1248.16 314.758 1239.2 311.636C1230.23 308.548 1223.04 304.534 1217.58 299.663C1212.13 294.791 1207.8 289.851 1204.59 284.808H1196.65V398.809H1141.12V398.878ZM1255.73 267.586C1273.09 267.586 1287.4 262.028 1298.72 250.947C1310.04 239.866 1315.7 223.673 1315.7 202.369V197.943C1315.7 176.638 1309.97 160.446 1298.52 149.364C1287.06 138.283 1272.81 132.726 1255.77 132.726C1238.72 132.726 1224.47 138.283 1213.02 149.364C1201.56 160.446 1195.83 176.638 1195.83 197.943V202.369C1195.83 223.673 1201.56 239.866 1213.02 250.947C1224.47 262.028 1238.72 267.586 1255.77 267.586H1255.73Z" fill="#1C2026"/>
<path d="M1499.94 316.37C1478.18 316.37 1459.02 311.704 1442.42 302.407C1425.82 293.076 1412.9 279.936 1403.63 262.92C1394.39 245.904 1389.75 225.869 1389.75 202.814V197.497C1389.75 174.443 1394.28 154.408 1403.42 137.391C1412.52 120.375 1425.31 107.236 1441.77 97.9043C1458.24 88.6071 1477.33 83.9414 1499.08 83.9414C1520.83 83.9414 1539.21 88.7444 1555.06 98.3503C1570.91 107.956 1583.29 121.267 1592.09 138.283C1600.92 155.3 1605.31 175.026 1605.31 197.497V216.572H1446.17C1446.75 231.667 1452.34 243.914 1462.91 253.383C1473.48 262.851 1486.43 267.586 1501.71 267.586C1516.98 267.586 1528.74 264.189 1536.07 257.397C1543.4 250.604 1548.99 243.056 1552.81 234.788L1598.22 258.735C1594.1 266.419 1588.17 274.79 1580.36 283.813C1572.55 292.836 1562.22 300.52 1549.27 306.867C1536.35 313.214 1519.88 316.404 1499.9 316.404L1499.94 316.37ZM1446.58 174.854H1548.86C1547.66 162.127 1542.62 151.937 1533.65 144.253C1524.69 136.568 1512.99 132.726 1498.61 132.726C1484.22 132.726 1471.71 136.568 1462.91 144.253C1454.08 151.937 1448.66 162.161 1446.62 174.854H1446.58Z" fill="#1C2026"/>
<path d="M1632.62 310.163V90.1537H1687.27V114.992H1695.21C1698.45 106.106 1703.8 99.6224 1711.3 95.4712C1718.8 91.3201 1727.53 89.2617 1737.52 89.2617H1763.97V138.938H1736.63C1722.52 138.938 1710.93 142.712 1701.82 150.259C1692.72 157.807 1688.15 169.402 1688.15 185.081V310.163H1632.62Z" fill="#1C2026"/>
<path d="M1785.11 310.163V90.1537H1839.76V114.1H1847.71C1851.52 106.724 1857.83 100.274 1866.66 94.8194C1875.49 89.3647 1887.08 86.6201 1901.47 86.6201C1917.05 86.6201 1929.53 89.6391 1938.94 95.7114C1948.35 101.784 1955.54 109.674 1960.55 119.452H1968.49C1973.47 109.983 1980.53 102.161 1989.67 95.9516C1998.77 89.742 2011.69 86.6544 2028.46 86.6544C2041.96 86.6544 2054.24 89.5362 2065.28 95.2997C2076.29 101.063 2085.12 109.777 2091.74 121.476C2098.35 133.174 2101.66 147.858 2101.66 165.629V310.232H2046.12V169.608C2046.12 157.498 2043.02 148.407 2036.88 142.334C2030.71 136.262 2022.02 133.243 2010.87 133.243C1998.22 133.243 1988.47 137.326 1981.55 145.456C1974.63 153.587 1971.19 165.183 1971.19 180.278V310.266H1915.65V169.643C1915.65 157.532 1912.55 148.441 1906.41 142.369C1900.24 136.296 1891.55 133.277 1880.4 133.277C1867.75 133.277 1858 137.36 1851.08 145.491C1844.16 153.621 1840.72 165.217 1840.72 180.312V310.3H1785.18L1785.11 310.163Z" fill="#1C2026"/>
<path d="M2239.15 316.37C2217.4 316.37 2198.24 311.704 2181.64 302.407C2165.03 293.076 2152.11 279.936 2142.84 262.92C2133.6 245.904 2128.96 225.869 2128.96 202.814V197.497C2128.96 174.443 2133.5 154.408 2142.64 137.391C2151.74 120.375 2164.52 107.236 2180.99 97.9043C2197.46 88.6071 2216.55 83.9414 2238.3 83.9414C2260.05 83.9414 2278.42 88.7444 2294.28 98.3503C2310.13 107.956 2322.5 121.267 2331.3 138.283C2340.13 155.3 2344.53 175.026 2344.53 197.497V216.572H2185.39C2185.97 231.667 2191.56 243.914 2202.13 253.383C2212.69 262.851 2225.65 267.586 2240.92 267.586C2256.2 267.586 2267.96 264.189 2275.32 257.397C2282.65 250.604 2288.24 243.056 2292.06 234.788L2337.47 258.735C2333.35 266.419 2327.41 274.79 2319.61 283.813C2311.8 292.836 2301.47 300.52 2288.52 306.867C2275.59 313.214 2259.13 316.404 2239.15 316.404V316.37ZM2185.83 174.854H2288.11C2286.91 162.127 2281.87 151.937 2272.9 144.253C2263.94 136.568 2252.24 132.726 2237.85 132.726C2223.47 132.726 2210.96 136.568 2202.16 144.253C2193.33 151.937 2187.91 162.161 2185.86 174.854H2185.83Z" fill="#1C2026"/>
<path d="M2371.83 310.163V90.1537H2426.48V114.1H2434.43C2438.25 106.724 2444.55 100.274 2453.38 94.8194C2462.21 89.3647 2473.8 86.6201 2488.19 86.6201C2503.77 86.6201 2516.25 89.6391 2525.66 95.7114C2535.07 101.784 2542.26 109.674 2547.27 119.452H2555.21C2560.19 109.983 2567.25 102.161 2576.39 95.9516C2585.49 89.742 2598.41 86.6544 2615.18 86.6544C2628.68 86.6544 2640.96 89.5362 2652 95.2997C2663.01 101.063 2671.84 109.777 2678.46 121.476C2685.07 133.174 2688.38 147.858 2688.38 165.629V310.232H2632.84V169.608C2632.84 157.498 2629.74 148.407 2623.6 142.334C2617.43 136.262 2608.74 133.243 2597.59 133.243C2584.94 133.243 2575.19 137.326 2568.27 145.456C2561.35 153.587 2557.91 165.183 2557.91 180.278V310.266H2502.37V169.643C2502.37 157.532 2499.27 148.441 2493.13 142.369C2486.96 136.296 2478.27 133.277 2467.12 133.277C2454.47 133.277 2444.72 137.36 2437.8 145.491C2430.88 153.621 2427.44 165.217 2427.44 180.312V310.3H2371.9L2371.83 310.163Z" fill="#1C2026"/>
<path d="M2830.3 316.37C2808.55 316.37 2789.02 311.944 2771.67 303.059C2754.31 294.173 2740.64 281.308 2730.65 264.464C2720.66 247.619 2715.65 227.344 2715.65 203.706V196.605C2715.65 172.933 2720.63 152.692 2730.65 135.848C2740.64 119.003 2754.31 106.138 2771.67 97.2524C2788.98 88.367 2808.55 83.9414 2830.3 83.9414C2852.05 83.9414 2871.59 88.367 2888.94 97.2524C2906.26 106.138 2919.93 119.003 2929.95 135.848C2939.94 152.692 2944.92 172.968 2944.92 196.605V203.706C2944.92 227.378 2939.91 247.619 2929.95 264.464C2919.97 281.308 2906.29 294.173 2888.94 303.059C2871.59 311.944 2852.05 316.37 2830.3 316.37ZM2830.3 266.694C2847.35 266.694 2861.43 261.136 2872.61 250.055C2883.79 238.974 2889.35 223.056 2889.35 202.369V197.943C2889.35 177.256 2883.83 161.338 2872.82 150.256C2861.8 139.175 2847.62 133.618 2830.27 133.618C2812.92 133.618 2799.11 139.175 2787.96 150.256C2776.78 161.338 2771.22 177.256 2771.22 197.943V202.369C2771.22 223.056 2776.78 238.974 2787.96 250.055C2799.14 261.136 2813.22 266.694 2830.27 266.694H2830.3Z" fill="#1C2026"/>
<path d="M2974 310.163V90.1537H3028.65V114.992H3036.59C3039.83 106.106 3045.19 99.6224 3052.69 95.4712C3060.19 91.3201 3068.91 89.2617 3078.9 89.2617H3105.36V138.938H3078.02C3063.9 138.938 3052.31 142.712 3043.21 150.259C3034.11 157.807 3029.54 169.402 3029.54 185.081V310.163H2974Z" fill="#1C2026"/>
<path d="M3150.32 398.881V350.097H3269.34C3277.55 350.097 3281.68 345.671 3281.68 336.786V281.346H3273.74C3271.38 286.389 3267.7 291.398 3262.72 296.441C3257.71 301.484 3250.96 305.601 3242.44 308.86C3233.92 312.119 3223.04 313.732 3209.81 313.732C3192.77 313.732 3177.83 309.821 3165.08 301.965C3152.3 294.143 3142.38 283.267 3135.32 269.373C3128.27 255.479 3124.75 239.492 3124.75 221.481V90.1543H3180.29V217.021C3180.29 233.591 3184.31 246.01 3192.43 254.278C3200.51 262.546 3212.03 266.697 3227.03 266.697C3244.08 266.697 3257.3 261.002 3266.71 249.612C3276.12 238.222 3280.83 222.338 3280.83 201.926V90.1543H3336.36V349.205C3336.36 364.3 3331.96 376.342 3323.14 385.364C3314.31 394.387 3302.54 398.881 3287.88 398.881H3150.36H3150.32Z" fill="#1C2026"/>
<path d="M490.535 157.777H308.62V0H249.846V171.191C249.846 189.374 257.039 206.836 269.824 219.701L418.362 369.176L459.92 327.356L350.212 216.956H490.569V157.811L490.535 157.777Z" fill="#1C2026"/>
<path d="M31.01 72.6618L140.718 183.061H0.361328V242.206H182.276V399.983H241.051V228.792C241.051 210.609 233.857 193.147 221.073 180.282L72.5681 30.8418L31.01 72.6618Z" fill="#1C2026"/>
</svg>
